<svg width="28" height="24" viewBox="0 0 28 24" fill="none" xmlns="http://www.w3.org/2000/svg">
<path d="M24.673 13.1947L24.6722 13.1947L8.74272 13.1947L9.21057 15.3694H23.4862L24.673 13.1947ZM24.673 13.1947C24.9716 13.1914 25.2532 12.9714 25.3194 12.6826C25.3194 12.6825 25.3195 12.6824 25.3195 12.6823L27.3939 3.96501L27.3941 3.96436C27.4387 3.76894 27.3738 3.56947 27.2532 3.42069C27.1325 3.27185 26.9498 3.16574 26.7473 3.16431H26.7467H6.58031L24.673 13.1947ZM8.67017 16.6818H23.4862L5.99185 0.787392C5.93311 0.530509 5.67684 0.331085 5.40836 0.333332V0.258332H5.40806H1.25924C0.891845 0.258332 0.591504 0.550739 0.591504 0.914528C0.591504 1.27832 0.891845 1.57072 1.25924 1.57072H4.86622L7.97218 15.976C7.95823 16.1632 8.03902 16.3423 8.16548 16.4718C8.29426 16.6037 8.47661 16.6907 8.67017 16.6818ZM6.86272 4.47671H25.9108L24.1406 11.8823H8.46037L6.86272 4.47671ZM11.6321 17.6942C10.126 17.6942 8.88976 18.9042 8.88976 20.3846C8.88976 21.865 10.126 23.075 11.6321 23.075C13.1382 23.075 14.3743 21.865 14.3743 20.3846C14.3743 18.9043 13.1382 17.6942 11.6321 17.6942ZM20.523 17.6942C19.017 17.6942 17.7807 18.9042 17.7807 20.3846C17.7807 21.865 19.017 23.075 20.523 23.075C22.0292 23.075 23.2653 21.865 23.2653 20.3846C23.2653 18.9043 22.0292 17.6942 20.523 17.6942ZM11.6321 19.0066C12.4174 19.0066 13.0389 19.6181 13.0389 20.3846C13.0389 21.1512 12.4174 21.7626 11.6321 21.7626C10.8467 21.7626 10.2252 21.1511 10.2252 20.3846C10.2252 19.6181 10.8467 19.0066 11.6321 19.0066ZM20.523 19.0066C21.3084 19.0066 21.9299 19.6181 21.9299 20.3846C21.9299 21.1512 21.3084 21.7626 20.523 21.7626C19.7377 21.7626 19.1162 21.1511 19.1162 20.3846C19.1162 19.6181 19.7377 19.0066 20.523 19.0066Z" fill="#22C6B6" stroke="#22C6B6" stroke-width="0.15"/>
</svg>
