<svg width="24" height="24" viewBox="0 0 24 24" fill="none" xmlns="http://www.w3.org/2000/svg">
<path d="M17.2289 0C15.1859 0 13.2734 0.969098 12 2.59281C10.7266 0.969043 8.81417 0 6.77106 0C3.0375 0 0 3.18216 0 7.09364C0 10.1565 1.7433 13.6992 5.18136 17.6233C7.82722 20.6431 10.7055 22.9812 11.5246 23.6259L11.9998 24L12.4751 23.626C13.2942 22.9813 16.1726 20.6432 18.8185 17.6234C22.2567 13.6993 24 10.1565 24 7.09364C24 3.18216 20.9625 0 17.2289 0ZM17.6527 16.5022C15.4764 18.9861 13.135 20.994 11.9998 21.9193C10.8647 20.994 8.52343 18.986 6.34713 16.5022C3.23003 12.9445 1.58242 9.69104 1.58242 7.09364C1.58242 4.09633 3.91005 1.65781 6.77106 1.65781C8.65382 1.65781 10.3923 2.73284 11.308 4.46342L12 5.77121L12.692 4.46342C13.6077 2.73289 15.3461 1.65781 17.2289 1.65781C20.09 1.65781 22.4176 4.09627 22.4176 7.09364C22.4176 9.69115 20.7699 12.9446 17.6527 16.5022Z" fill="#22C6B6"/>
</svg>
