<svg width="40" height="40" viewBox="0 0 40 40" fill="none" xmlns="http://www.w3.org/2000/svg">
<rect width="40" height="40" rx="20" fill="#FFF5F8"/>
<path d="M23 17C22.7238 17 22.5 17.2142 22.5 17.4785V26.5215C22.5 26.7856 22.7238 27 23 27C23.2762 27 23.5 26.7856 23.5 26.5215V17.4785C23.5 17.2142 23.2762 17 23 17Z" fill="#E4003B"/>
<path d="M17 17C16.7238 17 16.5 17.2142 16.5 17.4785V26.5215C16.5 26.7856 16.7238 27 17 27C17.2762 27 17.5 26.7856 17.5 26.5215V17.4785C17.5 17.2142 17.2762 17 17 17Z" fill="#E4003B"/>
<path d="M12.8922 15.9542V27.4942C12.8922 28.1762 13.154 28.8168 13.6112 29.2764C14.0664 29.7373 14.6998 29.9989 15.3627 30H24.6373C25.3004 29.9989 25.9338 29.7373 26.3888 29.2764C26.846 28.8168 27.1078 28.1762 27.1078 27.4942V15.9542C28.0167 15.7237 28.6057 14.8846 28.4841 13.9934C28.3624 13.1024 27.5679 12.4358 26.6274 12.4357H24.1176V11.8502C24.1205 11.3578 23.9167 10.885 23.552 10.5372C23.1872 10.1896 22.6916 9.99604 22.1764 10.0001H17.8236C17.3084 9.99604 16.8128 10.1896 16.448 10.5372C16.0833 10.885 15.8795 11.3578 15.8824 11.8502V12.4357H13.3726C12.4321 12.4358 11.6376 13.1024 11.5159 13.9934C11.3943 14.8846 11.9833 15.7237 12.8922 15.9542V15.9542ZM24.6373 29.0632H15.3627C14.5246 29.0632 13.8726 28.3753 13.8726 27.4942V15.9954H26.1274V27.4942C26.1274 28.3753 25.4754 29.0632 24.6373 29.0632ZM16.8628 11.8502C16.8595 11.6063 16.9599 11.3715 17.141 11.1994C17.3219 11.0272 17.5682 10.9326 17.8236 10.9368H22.1764C22.4318 10.9326 22.6781 11.0272 22.859 11.1994C23.0401 11.3714 23.1405 11.6063 23.1372 11.8502V12.4357H16.8628V11.8502ZM13.3726 13.3724H26.6274C27.1147 13.3724 27.5097 13.7499 27.5097 14.2155C27.5097 14.6811 27.1147 15.0586 26.6274 15.0586H13.3726C12.8853 15.0586 12.4903 14.6811 12.4903 14.2155C12.4903 13.7499 12.8853 13.3724 13.3726 13.3724V13.3724Z" fill="#E4003B"/>
<path d="M20 17C19.7238 17 19.5 17.2142 19.5 17.4785V26.5215C19.5 26.7856 19.7238 27 20 27C20.2762 27 20.5 26.7856 20.5 26.5215V17.4785C20.5 17.2142 20.2762 17 20 17Z" fill="#E4003B"/>
</svg>
