<svg width="13" height="18" viewBox="0 0 13 18" fill="none" xmlns="http://www.w3.org/2000/svg">
<path d="M6.5 0C2.91502 0 2.30312e-07 2.9354 0 6.54545C-1.53541e-07 9.17041 1.57861 11.9686 3.1233 14.1463C4.66798 16.324 6.21361 17.8803 6.21361 17.8803C6.28979 17.957 6.39307 18 6.50075 18C6.60843 18 6.71171 17.957 6.78789 17.8803C6.78789 17.8803 8.33351 16.324 9.8782 14.1463C11.4229 11.9686 13 9.17041 13 6.54545C13 2.9354 10.085 0 6.5 0ZM6.5 0.81837C9.64588 0.81837 12.1873 3.37757 12.1873 6.54545C12.1873 8.8295 10.7191 11.553 9.21695 13.6707C7.8583 15.5861 6.74704 16.7009 6.5 16.9547C6.25251 16.7004 5.14289 15.5857 3.78454 13.6707C2.2824 11.553 0.812687 8.8295 0.812687 6.54545C0.812688 3.37757 3.35412 0.81837 6.5 0.81837Z" fill="#09C4B1"/>
<path d="M6.5 3.68115C4.93428 3.68115 3.65709 4.96877 3.65709 6.54545C3.65709 8.12212 4.93428 9.40974 6.5 9.40974C8.06572 9.40974 9.34441 8.12212 9.34441 6.54545C9.34441 4.96877 8.06572 3.68115 6.5 3.68115ZM6.5 4.49952C7.62662 4.49952 8.53172 5.41095 8.53172 6.54545C8.53172 7.67995 7.62662 8.59137 6.5 8.59137C5.37338 8.59137 4.46978 7.67995 4.46978 6.54545C4.46978 5.41095 5.37338 4.49952 6.5 4.49952Z" fill="#09C4B1"/>
</svg>
