<svg width="16" height="15" viewBox="0 0 16 15" fill="none" xmlns="http://www.w3.org/2000/svg">
<path d="M5.91648 4.16669L3.41648 0.833353C2.53808 0.833353 1.83053 2.22224 1.58654 2.70835C1.00095 3.87502 4.03583 8.35072 5.49981 10.0521C6.0854 11.2188 10.9165 13.75 12.5832 14.1667C13.7544 14.1667 14.0058 12.8646 14.2498 12.5C15.1282 11.9167 12.7381 10.2952 11.7621 9.68752C10.8838 9.10419 10.3271 10.0521 10.0831 10.4167L8.83419 10.0521L6.74981 8.75002L4.66648 5.83335L5.91648 4.16669Z" fill="#1B1B1F"/>
<path fill-rule="evenodd" clip-rule="evenodd" d="M3.14069 1.29824C3.13926 1.29898 3.13971 1.2989 3.14069 1.29824C3.10363 1.32324 3.01909 1.37714 2.91384 1.44424C2.80577 1.51313 2.67587 1.59594 2.55311 1.6757C2.28193 1.85188 2.05742 2.00578 1.99514 2.06366C1.91945 2.13401 1.8742 2.18446 1.83636 2.2767C1.79367 2.38075 1.74984 2.56714 1.74984 2.91901C1.74984 3.58855 2.01303 4.64962 2.76733 6.01715C3.62628 7.57441 4.92478 9.06761 5.68888 9.81282L5.69412 9.81792C6.43925 10.5706 7.85152 11.8439 9.31635 12.6495C11.1348 13.6495 11.8436 13.75 12.4774 13.75C12.8053 13.75 13.0069 13.7052 13.1324 13.657C13.2517 13.6113 13.3192 13.5562 13.3728 13.503C13.6788 13.1992 13.9056 12.8422 14.0572 12.5543C14.1322 12.4117 14.1871 12.2894 14.2228 12.204C14.2318 12.1824 14.2396 12.1632 14.2461 12.1468C14.2429 12.1213 14.2369 12.0888 14.2262 12.0527C14.1989 11.9606 14.1431 11.8513 14.0216 11.7622C13.5625 11.4516 12.1021 10.5421 11.7904 10.3709C11.7373 10.3417 11.6856 10.3095 11.6423 10.2822C11.6369 10.2789 11.6317 10.2756 11.6266 10.2723C11.587 10.2474 11.5525 10.2257 11.5166 10.2047C11.4365 10.1577 11.3724 10.1282 11.3124 10.1132C11.228 10.092 11.0815 10.0783 10.8165 10.2774C10.7145 10.37 10.4987 10.5414 10.2399 10.6873C9.98251 10.8325 9.58841 11.0076 9.19564 10.9482C9.06875 10.929 8.94366 10.8756 8.84081 10.8238C8.731 10.7684 8.61339 10.6977 8.49456 10.6196C8.25655 10.4632 7.9904 10.2621 7.73419 10.056C7.22453 9.64603 6.72123 9.18952 6.51616 8.9747C6.49302 8.95047 6.46494 8.92125 6.43262 8.88762C6.2067 8.65254 5.77376 8.20205 5.3776 7.73471C5.1516 7.4681 4.92924 7.18638 4.76114 6.92854C4.67719 6.79976 4.60128 6.66863 4.54508 6.54227C4.49203 6.423 4.4404 6.27295 4.4404 6.1162C4.4404 5.77532 4.50134 5.52993 4.63616 5.29738C4.697 5.19242 4.76831 5.09815 4.83534 5.01221C4.85279 4.98984 4.87008 4.96786 4.88744 4.94581C4.94032 4.87861 4.99375 4.81071 5.05369 4.72894C5.08548 4.68559 5.12279 4.64181 5.1508 4.60895C5.15263 4.6068 5.15442 4.6047 5.15617 4.60264C5.18839 4.5648 5.21592 4.53226 5.24212 4.49785C5.2938 4.42997 5.32808 4.37007 5.34625 4.30909C5.37327 4.21835 5.39963 4.01093 5.09488 3.6044L5.08884 3.59633L5.08319 3.58798C4.88406 3.2937 4.65118 2.94274 4.42249 2.5981C4.11806 2.13931 3.82107 1.69172 3.62102 1.40395C3.57168 1.33298 3.52425 1.29851 3.48646 1.27984C3.44694 1.26032 3.40264 1.2507 3.35339 1.25005C3.3029 1.24939 3.25169 1.25835 3.20701 1.27203C3.16901 1.28367 3.14606 1.29545 3.14069 1.29824ZM14.6662 12.2136C15.0822 12.2369 15.0822 12.2367 15.0822 12.2365L15.0823 12.2353L15.0824 12.2335L15.0825 12.2293L15.0829 12.2188C15.0831 12.2107 15.0832 12.2008 15.0831 12.1891C15.083 12.1657 15.0819 12.135 15.0788 12.0984C15.0727 12.0258 15.0583 11.9272 15.0251 11.8154C14.9581 11.59 14.8122 11.3046 14.5043 11.0829L14.4995 11.0794L14.4946 11.0761C14.0287 10.7603 12.5348 9.82899 12.1916 9.64047C12.1626 9.62456 12.1299 9.60444 12.0857 9.57665C12.0808 9.57359 12.0758 9.57044 12.0707 9.56719C12.0322 9.54296 11.986 9.51392 11.938 9.48579C11.8282 9.42141 11.6857 9.34766 11.5151 9.30488C11.1399 9.21078 10.733 9.29073 10.2947 9.62722L10.278 9.64009L10.2626 9.6546C10.2153 9.69917 10.0427 9.84178 9.83051 9.96145C9.60061 10.0911 9.41945 10.1392 9.32029 10.1242C9.32112 10.1243 9.32087 10.1242 9.31946 10.1238C9.31279 10.1218 9.28036 10.1121 9.21569 10.0795C9.14432 10.0436 9.05569 9.99116 8.95216 9.92314C8.74545 9.78732 8.50243 9.60449 8.25651 9.40668C7.76195 9.00885 7.28929 8.57773 7.11892 8.39927C7.09424 8.37342 7.06491 8.34288 7.03161 8.30823C6.8039 8.07121 6.39088 7.64131 6.01327 7.19585C5.79644 6.94006 5.59961 6.68877 5.45923 6.47344C5.38895 6.36562 5.3383 6.27512 5.3065 6.20362C5.27805 6.13966 5.2742 6.11182 5.27376 6.11187C5.27365 6.11189 5.27373 6.11336 5.27373 6.1162C5.27373 5.89095 5.3101 5.79641 5.35711 5.71532C5.38718 5.66345 5.42791 5.60746 5.49244 5.52472C5.50621 5.50707 5.52109 5.48815 5.53692 5.46804C5.5912 5.39909 5.65655 5.31606 5.72575 5.22167C5.73781 5.20522 5.75563 5.18402 5.79063 5.14292C5.82182 5.1063 5.86356 5.05728 5.90514 5.00267C5.98944 4.89195 6.08716 4.74085 6.14491 4.54697C6.26906 4.13014 6.17177 3.65516 5.76792 3.11292C5.58051 2.83584 5.35379 2.49424 5.12799 2.15406C4.81687 1.68531 4.50752 1.21923 4.30526 0.928288C4.04308 0.551135 3.6817 0.420975 3.36437 0.416794C3.07371 0.412964 2.81479 0.512833 2.67454 0.607476C2.64134 0.629883 2.57313 0.673292 2.4823 0.731098C2.37811 0.797407 2.24415 0.882662 2.0991 0.976896C1.85644 1.13455 1.55609 1.33405 1.42783 1.45325C1.31298 1.55999 1.16907 1.70769 1.06539 1.96039C0.966559 2.20128 0.916504 2.50662 0.916504 2.91901C0.916504 3.77801 1.24357 4.98 2.03764 6.41963C2.94637 8.06714 4.30091 9.62269 5.10443 10.4068C5.87328 11.1831 7.34956 12.5188 8.91478 13.3796C10.8016 14.4173 11.6519 14.5834 12.4774 14.5834C12.879 14.5834 13.1868 14.5287 13.4308 14.4351C13.6811 14.3391 13.8433 14.2101 13.9599 14.0944C14.3461 13.711 14.6192 13.2755 14.7945 12.9426C14.8829 12.7748 14.9481 12.6296 14.9918 12.5252C15.0136 12.4729 15.0301 12.4306 15.0415 12.4005C15.043 12.3963 15.0445 12.3924 15.0459 12.3887C15.0495 12.379 15.0524 12.3709 15.0547 12.3646L15.0585 12.354L15.0596 12.3506L15.0601 12.3494C15.0601 12.3494 15.0604 12.3486 14.6662 12.2136ZM15.0604 12.3486L14.6662 12.2136L15.0822 12.2365L15.079 12.2943L15.0604 12.3486Z" fill="#1B1B1F"/>
</svg>
