<svg width="16" height="16" viewBox="0 0 16 16" fill="none" xmlns="http://www.w3.org/2000/svg">
<path fill-rule="evenodd" clip-rule="evenodd" d="M8.00253 0.226785C8.30487 0.228196 8.54882 0.474433 8.54741 0.77677L8.51612 7.48385L15.2232 7.45257C15.5256 7.45116 15.7718 7.69511 15.7732 7.99745C15.7746 8.29978 15.5307 8.54602 15.2283 8.54743L8.51101 8.57876L8.48031 15.1612C8.4789 15.4636 8.23266 15.7075 7.93032 15.7061C7.62799 15.7047 7.38404 15.4585 7.38545 15.1561L7.4161 8.58387L0.843868 8.61453C0.54153 8.61594 0.295294 8.37199 0.293884 8.06965C0.292474 7.76731 0.536423 7.52107 0.838761 7.51966L7.42121 7.48896L7.45255 0.771663C7.45396 0.469325 7.70019 0.225375 8.00253 0.226785Z" fill="#222222"/>
</svg>
