<svg width="24" height="24" viewBox="0 0 24 24" fill="none" xmlns="http://www.w3.org/2000/svg">
<path d="M0.426156 13.2494C0.248987 13.4378 0.121301 13.6655 0.0541078 13.9129C-0.0130851 14.1604 -0.0177684 14.4201 0.0404617 14.6697C0.0986918 14.9193 0.218088 15.1512 0.388355 15.3456C0.558621 15.54 0.774649 15.6909 1.01781 15.7854L2.33513 16.2975C2.41346 16.329 2.47743 16.3873 2.51511 16.4615C2.55279 16.5357 2.56161 16.6207 2.53993 16.7008L2.13538 18.0393C2.05932 18.2842 2.04523 18.5434 2.09432 18.7948C2.14342 19.0461 2.25422 19.282 2.41719 19.4821C2.58016 19.6822 2.79041 19.8406 3.02982 19.9435C3.26923 20.0465 3.53064 20.0909 3.79151 20.0731L5.2049 19.9741C5.29197 19.9681 5.37817 19.9942 5.44651 20.0474C5.51485 20.1005 5.56036 20.1767 5.57406 20.2611L5.7915 21.6318C5.83164 21.8846 5.93401 22.1241 6.08978 22.3297C6.24555 22.5352 6.45005 22.7007 6.68568 22.8117C6.9213 22.9227 7.18097 22.976 7.44233 22.967C7.70368 22.958 7.95888 22.8869 8.18593 22.76L9.41475 22.0721C9.49051 22.0296 9.57981 22.0165 9.66501 22.0352C9.75021 22.054 9.82511 22.1034 9.87493 22.1736L10.6764 23.3166C10.8247 23.5274 11.0231 23.6997 11.2546 23.8188C11.4861 23.9378 11.7436 24 12.0051 24C12.2666 24 12.5242 23.9378 12.7557 23.8188C12.9871 23.6997 13.1855 23.5274 13.3338 23.3166L14.1353 22.1736C14.1855 22.1038 14.2604 22.0548 14.3455 22.0361C14.4305 22.0174 14.5196 22.0302 14.5955 22.0721L15.8243 22.76C16.0514 22.8869 16.3066 22.958 16.5679 22.967C16.8293 22.976 17.089 22.9227 17.3246 22.8117C17.5602 22.7007 17.7647 22.5352 17.9205 22.3297C18.0763 22.1241 18.1786 21.8846 18.2188 21.6318L18.4362 20.2611C18.4499 20.1767 18.4954 20.1005 18.5638 20.0474C18.6321 19.9942 18.7183 19.9681 18.8054 19.9741L20.2188 20.0731C20.4782 20.088 20.7375 20.0414 20.9745 19.9371C21.2116 19.8329 21.4194 19.6742 21.5803 19.4745C21.7412 19.2748 21.8504 19.04 21.8986 18.7901C21.9468 18.5403 21.9326 18.2827 21.8572 18.0393L21.4526 16.7008C21.4275 16.619 21.4345 16.531 21.4724 16.454C21.5103 16.3771 21.5764 16.3168 21.6574 16.2852L22.9748 15.773C23.2179 15.6786 23.434 15.5276 23.6042 15.3332C23.7745 15.1389 23.8939 14.9069 23.9521 14.6573C24.0103 14.4077 24.0057 14.148 23.9385 13.9006C23.8713 13.6532 23.7436 13.4254 23.5664 13.2371L22.6157 12.2301C22.5571 12.1672 22.5246 12.0851 22.5246 12C22.5246 11.9149 22.5571 11.8328 22.6157 11.7699L23.5765 10.7506C23.7535 10.5615 23.8807 10.3332 23.9472 10.0852C24.0137 9.83726 24.0175 9.5772 23.9582 9.3275C23.8989 9.0778 23.7784 8.84598 23.6071 8.65208C23.4357 8.45817 23.2187 8.30802 22.9748 8.2146L21.6574 7.70245C21.5791 7.67099 21.5151 7.61273 21.4775 7.53853C21.4398 7.46434 21.431 7.37926 21.4526 7.29917L21.8572 5.96067C21.9333 5.71584 21.9473 5.45659 21.8983 5.20525C21.8492 4.9539 21.7384 4.71801 21.5754 4.51788C21.4124 4.31776 21.2022 4.1594 20.9628 4.05645C20.7233 3.95351 20.4619 3.90906 20.2011 3.92694L18.7877 4.02591C18.7007 4.03135 18.6148 4.005 18.5466 3.95197C18.4784 3.89894 18.4328 3.82301 18.4185 3.73891L18.2011 2.36825C18.1609 2.11538 18.0586 1.87586 17.9028 1.67031C17.747 1.46476 17.5425 1.29935 17.3069 1.18833C17.0713 1.07731 16.8116 1.02401 16.5502 1.03302C16.2889 1.04203 16.0337 1.11308 15.8066 1.24005L14.5879 1.93033C14.5122 1.97284 14.4229 1.98601 14.3377 1.96723C14.2525 1.94844 14.1776 1.89908 14.1278 1.82889L13.3237 0.683371C13.1754 0.472617 12.977 0.300295 12.7455 0.181249C12.5141 0.0622022 12.2565 0 11.995 0C11.7335 0 11.476 0.0622022 11.2445 0.181249C11.013 0.300295 10.8146 0.472617 10.6663 0.683371L9.86481 1.82641C9.815 1.89661 9.7401 1.94597 9.6549 1.96475C9.5697 1.98353 9.4804 1.97037 9.40464 1.92785L8.17582 1.24005C7.94876 1.11308 7.69357 1.04203 7.43221 1.03302C7.17086 1.02401 6.91119 1.07731 6.67556 1.18833C6.43994 1.29935 6.23543 1.46476 6.07966 1.67031C5.92389 1.87586 5.82153 2.11538 5.78139 2.36825L5.56394 3.73891C5.55024 3.82326 5.50474 3.89952 5.4364 3.95265C5.36806 4.00578 5.28186 4.03192 5.19479 4.02591L3.78139 3.92694C3.52134 3.91076 3.26116 3.95646 3.0231 4.06013C2.78504 4.1638 2.57618 4.32236 2.41441 4.52224C2.25263 4.72213 2.14274 4.95739 2.09415 5.20789C2.04556 5.45839 2.0597 5.71668 2.13538 5.96067L2.53993 7.29917C2.56512 7.38096 2.55806 7.46903 2.52015 7.54598C2.48223 7.62293 2.41622 7.68317 2.33513 7.71482L1.01781 8.2146C0.774649 8.30908 0.558621 8.46001 0.388355 8.65439C0.218088 8.84877 0.0986918 9.08075 0.0404617 9.33034C-0.0177684 9.57993 -0.0130851 9.83963 0.0541078 10.0871C0.121301 10.3345 0.248987 10.5622 0.426156 10.7506L1.37685 11.7699C1.43548 11.8328 1.46798 11.9149 1.46798 12C1.46798 12.0851 1.43548 12.1672 1.37685 12.2301L0.426156 13.2494ZM2.31743 10.9312L1.35662 9.91184C1.31865 9.8712 1.29128 9.82217 1.27687 9.76893C1.26245 9.7157 1.26141 9.65984 1.27383 9.60613C1.28625 9.55242 1.31176 9.50244 1.34819 9.46046C1.38462 9.41848 1.43089 9.38575 1.48304 9.36506L2.80036 8.85292C3.17512 8.7054 3.48007 8.42626 3.65546 8.0702C3.83086 7.71413 3.86404 7.30681 3.74852 6.92805L3.33639 5.60192C3.3194 5.54894 3.31629 5.49263 3.32733 5.43816C3.33837 5.38369 3.36322 5.33281 3.3996 5.29018C3.43488 5.2474 3.4802 5.21359 3.53171 5.19162C3.58321 5.16965 3.63938 5.16018 3.69543 5.164L5.10882 5.26297C5.51198 5.28884 5.91048 5.16643 6.2262 4.91974C6.54192 4.67305 6.75209 4.31986 6.81552 3.92942L7.03296 2.55875C7.0419 2.50547 7.06363 2.45503 7.09636 2.41156C7.12908 2.36808 7.17188 2.33283 7.22124 2.30868C7.27059 2.28453 7.32509 2.27218 7.38027 2.27265C7.43545 2.27311 7.48973 2.28637 7.53865 2.31134L8.76747 2.99915C9.11901 3.1938 9.53216 3.25298 9.92597 3.16511C10.3198 3.07724 10.6659 2.84865 10.8964 2.52412L11.7106 1.38602C11.7427 1.3406 11.7856 1.30348 11.8355 1.27784C11.8855 1.2522 11.9411 1.2388 11.9976 1.2388C12.054 1.2388 12.1096 1.2522 12.1596 1.27784C12.2095 1.30348 12.2524 1.3406 12.2845 1.38602L13.086 2.52907C13.3166 2.8536 13.6627 3.08219 14.0565 3.17006C14.4503 3.25793 14.8635 3.19874 15.215 3.0041L16.4438 2.31629C16.4927 2.29132 16.547 2.27806 16.6022 2.2776C16.6574 2.27713 16.7119 2.28948 16.7612 2.31363C16.8106 2.33778 16.8534 2.37303 16.8861 2.4165C16.9188 2.45997 16.9406 2.51042 16.9495 2.5637L17.1669 3.93437C17.2304 4.32481 17.4405 4.678 17.7563 4.92469C18.072 5.17138 18.4705 5.29379 18.8736 5.26792L20.287 5.16895C20.3431 5.16548 20.3992 5.17531 20.4505 5.1976C20.5019 5.21989 20.547 5.25397 20.582 5.29696C20.617 5.33996 20.6408 5.39058 20.6516 5.44453C20.6623 5.49849 20.6595 5.55418 20.6435 5.60687L20.2441 6.92805C20.1285 7.30681 20.1617 7.71413 20.3371 8.0702C20.5125 8.42626 20.8175 8.7054 21.1922 8.85292L22.5095 9.36506C22.5619 9.38549 22.6084 9.41803 22.6451 9.45989C22.6818 9.50175 22.7076 9.55169 22.7203 9.60543C22.7329 9.65917 22.7321 9.71511 22.7179 9.76847C22.7036 9.82184 22.6764 9.87103 22.6385 9.91184L21.6777 10.9312C21.4053 11.2233 21.2543 11.6045 21.2543 12C21.2543 12.3955 21.4053 12.7767 21.6777 13.0688L22.6385 14.0882C22.6765 14.1288 22.7038 14.1778 22.7182 14.2311C22.7327 14.2843 22.7337 14.3402 22.7213 14.3939C22.7089 14.4476 22.6833 14.4976 22.6469 14.5395C22.6105 14.5815 22.5642 14.6142 22.5121 14.6349L21.1947 15.1471C20.82 15.2946 20.515 15.5737 20.3396 15.9298C20.1642 16.2859 20.1311 16.6932 20.2466 17.0719L20.6587 18.3981C20.6747 18.4508 20.6775 18.5065 20.6667 18.5604C20.656 18.6144 20.6321 18.665 20.5971 18.708C20.5621 18.751 20.517 18.7851 20.4657 18.8074C20.4144 18.8296 20.3583 18.8395 20.3022 18.836L18.8888 18.737C18.4856 18.7112 18.0872 18.8336 17.7714 19.0803C17.4557 19.327 17.2455 19.6801 17.1821 20.0706L16.9647 21.4412C16.9557 21.4945 16.934 21.545 16.9013 21.5884C16.8685 21.6319 16.8258 21.6672 16.7764 21.6913C16.727 21.7155 16.6725 21.7278 16.6174 21.7274C16.5622 21.7269 16.5079 21.7136 16.459 21.6887L15.2302 21.0009C14.8786 20.8062 14.4655 20.747 14.0717 20.8349C13.6779 20.9228 13.3318 21.1514 13.1012 21.4759L12.282 22.614C12.2499 22.6594 12.207 22.6965 12.157 22.7222C12.1071 22.7478 12.0515 22.7612 11.995 22.7612C11.9386 22.7612 11.883 22.7478 11.833 22.7222C11.783 22.6965 11.7401 22.6594 11.708 22.614L10.9065 21.4709C10.757 21.2602 10.5573 21.0881 10.3248 20.9696C10.0922 20.8511 9.83372 20.7896 9.57152 20.7906C9.29309 20.79 9.01938 20.8608 8.77759 20.9959L7.54877 21.6837C7.49984 21.7087 7.44556 21.7219 7.39039 21.7224C7.33521 21.7229 7.2807 21.7105 7.23135 21.6864C7.182 21.6622 7.1392 21.627 7.10647 21.5835C7.07374 21.54 7.05202 21.4896 7.04308 21.4363L6.82563 20.0656C6.76221 19.6752 6.55203 19.322 6.23632 19.0753C5.9206 18.8286 5.5221 18.7062 5.11894 18.7321L3.70554 18.831C3.64948 18.8345 3.59339 18.8247 3.54205 18.8024C3.4907 18.7801 3.44561 18.746 3.41061 18.703C3.37561 18.66 3.35174 18.6094 3.34101 18.5555C3.33029 18.5015 3.33304 18.4458 3.34903 18.3931L3.76117 17.067C3.87669 16.6882 3.8435 16.2809 3.66811 15.9249C3.49271 15.5688 3.18776 15.2897 2.813 15.1421L1.48304 14.6349C1.43069 14.6145 1.38417 14.582 1.34747 14.5401C1.31078 14.4983 1.28499 14.4483 1.27231 14.3946C1.25964 14.3408 1.26046 14.2849 1.2747 14.2315C1.28894 14.1782 1.31618 14.129 1.35409 14.0882L2.3149 13.0688C2.58762 12.777 2.73906 12.3959 2.73953 12.0005C2.74 11.605 2.58945 11.2236 2.31743 10.9312Z" fill="#E4003B"/>
<path d="M8.83278 16.0455C8.96596 16.1448 9.13392 16.1882 9.29982 16.1664C9.46572 16.1446 9.61602 16.0593 9.71773 15.9293L15.2828 8.8211C15.3834 8.68987 15.4266 8.5249 15.4029 8.36251C15.3792 8.20011 15.2905 8.05358 15.1564 7.95516C15.09 7.90642 15.0144 7.87096 14.934 7.8508C14.8536 7.83064 14.7699 7.82618 14.6877 7.83767C14.5218 7.86087 14.372 7.94763 14.2714 8.07886L8.70888 15.1796C8.60802 15.3105 8.56442 15.4753 8.58765 15.6377C8.61088 15.8 8.69905 15.9467 8.83278 16.0455Z" fill="#E4003B"/>
<path d="M13.0073 14.4741V14.9689C13.0073 15.4939 13.2204 15.9973 13.5998 16.3685C13.9791 16.7397 14.4936 16.9482 15.0301 16.9482C15.5665 16.9482 16.081 16.7397 16.4604 16.3685C16.8397 15.9973 17.0528 15.4939 17.0528 14.9689V14.4741C17.0528 13.9492 16.8397 13.4457 16.4604 13.0745C16.081 12.7033 15.5665 12.4948 15.0301 12.4948C14.4936 12.4948 13.9791 12.7033 13.5998 13.0745C13.2204 13.4457 13.0073 13.9492 13.0073 14.4741ZM15.7886 14.4741V14.9689C15.7886 15.1658 15.7087 15.3546 15.5664 15.4938C15.4242 15.633 15.2313 15.7112 15.0301 15.7112C14.8289 15.7112 14.636 15.633 14.4937 15.4938C14.3515 15.3546 14.2715 15.1658 14.2715 14.9689V14.4741C14.2715 14.2773 14.3515 14.0885 14.4937 13.9493C14.636 13.8101 14.8289 13.7319 15.0301 13.7319C15.2313 13.7319 15.4242 13.8101 15.5664 13.9493C15.7087 14.0885 15.7886 14.2773 15.7886 14.4741Z" fill="#E4003B"/>
<path d="M8.96171 11.5048C9.49818 11.5048 10.0127 11.2962 10.392 10.9251C10.7714 10.5539 10.9845 10.0504 10.9845 9.52548V9.03066C10.9845 8.50572 10.7714 8.00227 10.392 7.63108C10.0127 7.25989 9.49818 7.05136 8.96171 7.05136C8.42525 7.05136 7.91075 7.25989 7.53141 7.63108C7.15208 8.00227 6.93896 8.50572 6.93896 9.03066V9.52548C6.93896 10.0504 7.15208 10.5539 7.53141 10.9251C7.91075 11.2962 8.42525 11.5048 8.96171 11.5048ZM8.20318 9.03066C8.20318 8.8338 8.2831 8.64501 8.42535 8.50582C8.5676 8.36662 8.76054 8.28842 8.96171 8.28842C9.16289 8.28842 9.35582 8.36662 9.49808 8.50582C9.64033 8.64501 9.72025 8.8338 9.72025 9.03066V9.52548C9.72025 9.72234 9.64033 9.91113 9.49808 10.0503C9.35582 10.1895 9.16289 10.2677 8.96171 10.2677C8.76054 10.2677 8.5676 10.1895 8.42535 10.0503C8.2831 9.91113 8.20318 9.72234 8.20318 9.52548V9.03066Z" fill="#E4003B"/>
</svg>
