<svg width="16" height="16" viewBox="0 0 16 16" fill="none" xmlns="http://www.w3.org/2000/svg">
<path d="M6.88854 0C3.09202 0 0 3.092 0 6.88854C0 10.685 3.09202 13.7771 6.88854 13.7771C8.54755 13.7771 10.0726 13.1894 11.2633 12.2077H11.2703L14.8604 15.8048C15.1207 16.0651 15.5444 16.0651 15.8048 15.8048C16.0651 15.5444 16.0651 15.1276 15.8048 14.8673L12.2008 11.2703C12.2019 11.2681 12.1997 11.2647 12.2008 11.2634C13.1825 10.0727 13.7771 8.54764 13.7771 6.8886C13.7771 3.09207 10.6851 6.78168e-05 6.88853 6.78168e-05L6.88854 0ZM6.88854 1.33327C9.96451 1.33327 12.4438 3.81256 12.4438 6.88854C12.4438 9.96449 9.9645 12.4438 6.88854 12.4438C3.81258 12.4438 1.33327 9.96449 1.33327 6.88854C1.33327 3.81256 3.81258 1.33327 6.88854 1.33327Z" fill="#1B1B1F"/>
</svg>
